<svg width="29" height="29" viewBox="0 0 29 29" fill="none" xmlns="http://www.w3.org/2000/svg">
<path d="M10.6956 27.4779C11.3783 27.4779 11.9317 26.9245 11.9317 26.2419C11.9317 25.5592 11.3783 25.0059 10.6956 25.0059C10.013 25.0059 9.45959 25.5592 9.45959 26.2419C9.45959 26.9245 10.013 27.4779 10.6956 27.4779Z" stroke="#A18B7F" stroke-width="1.49555" stroke-linecap="round" stroke-linejoin="round"/>
<path d="M24.2913 27.4779C24.974 27.4779 25.5274 26.9245 25.5274 26.2419C25.5274 25.5592 24.974 25.0059 24.2913 25.0059C23.6087 25.0059 23.0553 25.5592 23.0553 26.2419C23.0553 26.9245 23.6087 27.4779 24.2913 27.4779Z" stroke="#A18B7F" stroke-width="1.49555" stroke-linecap="round" stroke-linejoin="round"/>
<path d="M0.807251 1.52148H5.75138L9.06395 18.072C9.17698 18.641 9.48656 19.1522 9.9385 19.516C10.3904 19.8798 10.9559 20.0731 11.536 20.062H23.5503C24.1303 20.0731 24.6958 19.8798 25.1478 19.516C25.5997 19.1522 25.9093 18.641 26.0223 18.072L28 7.70165H6.98741" stroke="#A18B7F" stroke-width="1.49555" stroke-linecap="round" stroke-linejoin="round"/>
</svg>
