<svg width="185" height="40" viewBox="0 0 185 40" fill="none" xmlns="http://www.w3.org/2000/svg">
<path d="M129.8 21.2877L129.9 20.9059L129.497 20.9568C128.664 21.0586 127.83 21.135 126.947 21.1605C126.543 21.1605 126.114 21.1859 125.71 21.2114C124.524 21.2623 123.287 21.2877 122.1 21.2623C122.075 20.7023 122.05 20.1169 122.05 19.5569V16.6808C122.05 16.3753 122.05 16.0954 122.05 15.7899C122.05 15.5609 122.05 15.3318 122.075 15.1282H124.599L126.19 15.1791C127.048 15.2045 127.881 15.2554 128.689 15.3063H129.042L128.966 14.9245C128.916 14.67 128.865 14.4664 128.865 14.2882C128.865 14.1101 128.916 13.9319 128.992 13.7028L129.143 13.321L128.739 13.3465C128.361 13.3719 127.982 13.3719 127.629 13.3974C127.149 13.4228 126.695 13.4228 126.215 13.4737L124.7 13.5501H122.05C122.05 13.4228 122.05 13.2956 122.05 13.1683C122.05 12.9647 122.024 12.7356 122.024 12.532V11.5139L122.151 8.33229H123.968L126.821 8.40865C127.351 8.40865 127.881 8.45955 128.386 8.51046C128.714 8.53591 129.042 8.56136 129.37 8.58681L129.8 8.61227L129.648 8.20503C129.572 8.02686 129.572 7.82323 129.572 7.61961C129.572 7.49234 129.598 7.33963 129.623 7.21236C129.648 7.13601 129.648 7.0342 129.673 6.95784L129.699 6.62695L129.32 6.65241C128.386 6.70332 127.401 6.72877 126.467 6.72877H122.378L118.995 6.62695L119.02 6.93239C119.071 7.92505 119.121 8.89225 119.172 9.85945L119.222 11.8702L119.147 19.7097L118.945 22.9167L119.652 22.8912C120.737 22.8658 121.797 22.8658 122.883 22.8403C124.448 22.8149 126.013 22.8403 127.603 22.8658L129.951 22.9167L129.825 22.5604C129.699 22.1022 129.673 21.695 129.8 21.2877Z" fill="#A18B7F"/>
<path d="M166.151 21.2642L166.252 20.8824L165.848 20.9333C165.015 21.0351 164.182 21.1114 163.298 21.1369C162.894 21.1369 162.465 21.1623 162.061 21.1878C160.875 21.2387 159.638 21.2642 158.452 21.2387C158.426 20.6787 158.401 20.0933 158.401 19.5334V16.6572C158.401 16.3518 158.401 16.0718 158.401 15.7664C158.401 15.5373 158.401 15.3082 158.426 15.1046H160.951L162.541 15.1555C163.399 15.181 164.232 15.2319 165.04 15.2828L165.419 15.3082L165.318 14.9264C165.267 14.7228 165.217 14.4937 165.217 14.3156C165.217 14.1374 165.267 13.9592 165.343 13.7301L165.495 13.3229L165.065 13.3484C164.687 13.3738 164.308 13.3738 163.955 13.3993C163.475 13.4247 163.021 13.4247 162.541 13.4756L161.026 13.552H158.426C158.426 13.4247 158.426 13.2975 158.426 13.1702C158.426 12.9666 158.401 12.7375 158.401 12.5339V11.5158L158.527 8.33418H160.345L163.197 8.41053C163.728 8.41053 164.258 8.46144 164.763 8.51234C165.091 8.5378 165.419 8.56325 165.747 8.5887L166.176 8.61416L166.025 8.20691C165.949 8.02875 165.949 7.82511 165.949 7.62149C165.949 7.49423 165.974 7.34151 165.999 7.21425C166.025 7.13789 166.025 7.03608 166.05 6.95973L166.025 6.6543L165.697 6.67975C164.763 6.73065 163.778 6.7561 162.844 6.7561H158.755L155.397 6.6543L155.422 6.95973C155.473 7.95238 155.523 8.91959 155.574 9.88679L155.624 11.8976L155.549 19.737L155.347 22.944L156.053 22.9186C157.139 22.8931 158.199 22.8931 159.285 22.8677C160.875 22.8422 162.44 22.8677 164.005 22.8931L166.353 22.944L166.227 22.5877C166.05 22.1041 166.05 21.7223 166.151 21.2642Z" fill="#A18B7F"/>
<path d="M183.922 21.8713L182.559 20.5987L177.081 14.9736C179.075 14.6173 182.609 13.5228 182.609 10.4176C182.609 9.80672 182.382 9.09404 181.978 8.48317C180.868 6.77784 178.343 6.59967 176.021 6.57422L172.234 6.62513L169.735 6.57422L169.912 11.8684L169.76 19.9114C169.735 20.3696 169.71 20.8023 169.685 21.235C169.659 21.6677 169.634 22.1258 169.609 22.5585V22.864L170.366 22.8131C170.972 22.7622 171.553 22.7622 172.159 22.8131L172.891 22.864L172.764 17.7989V15.2536H173.471L175.667 17.3407L179.025 20.8532C179.58 21.4386 180.11 22.0495 180.64 22.6349L180.842 22.864H180.969C181.196 22.864 181.448 22.8385 181.675 22.8131C182.256 22.7622 182.862 22.7622 183.468 22.8131C183.72 22.8385 183.973 22.864 184.225 22.864L184.427 22.4058L183.922 21.8713ZM179.53 10.6976C179.53 12.2247 178.268 13.3447 176.122 13.701C175.264 13.8283 174.733 13.8537 173.799 13.8537C173.446 13.8537 173.067 13.8537 172.714 13.8282L172.815 8.02502C173.496 7.99957 174.203 7.99957 174.885 7.99957C175.415 7.99957 176.122 7.99957 176.652 8.07593C177.636 8.20319 178.015 8.27955 178.722 8.86497C179.252 9.32312 179.53 9.93398 179.53 10.6976Z" fill="#A18B7F"/>
<path d="M148.657 8.07794C146.334 6.55078 143.633 6.55078 140.856 6.55078H133.586L133.687 9.65602L133.637 20.2952L133.485 22.866L133.788 22.8405C134.545 22.7896 135.227 22.7642 135.908 22.7642L139.417 22.8151C142.649 22.866 145.728 22.7642 148.177 21.0334C149.338 20.2443 150.272 19.2008 150.979 17.9791C151.56 16.9355 151.862 15.6119 151.862 14.0339C151.812 11.565 150.701 9.45239 148.657 8.07794ZM148.581 14.4157C148.581 15.8665 148.278 17.0882 147.647 18.1572C146.839 19.5317 146.082 20.168 144.567 20.7534C143.911 21.0079 143.305 21.1861 142.573 21.2625C141.74 21.3643 140.553 21.4152 139.392 21.4152C138.71 21.4152 138.029 21.3643 137.373 21.3388C137.12 21.3134 136.842 21.3134 136.59 21.2879L136.489 18.8699V12.6085C136.489 11.5904 136.54 10.5214 136.59 9.52874C136.615 9.0706 136.64 8.587 136.666 8.12885C137.07 8.12885 137.474 8.1034 137.877 8.1034C138.559 8.07795 139.241 8.05249 139.922 8.05249C142.27 8.05249 144.466 8.05249 146.435 9.37603C148.429 10.6996 148.581 13.5503 148.581 14.4157Z" fill="#A18B7F"/>
<path d="M114.475 6.62726L114.248 6.57636L113.516 8.71438L110.209 17.3938C109.906 18.1573 109.629 18.8955 109.3 19.6591L105.817 11.2597L104.327 7.39084L103.974 6.55091L103.772 6.60181C103.242 6.70362 102.687 6.70362 102.005 6.60181L101.778 6.57636L101.652 7.00906C101.475 7.64537 101.197 8.30714 100.945 8.94346C100.844 9.17253 100.768 9.40161 100.667 9.63068C100.415 10.2925 100.162 10.9288 99.8593 11.5905L96.5019 19.6082L94.2552 13.9322L92.5891 9.27435C92.4629 8.8671 92.3114 8.48531 92.1852 8.07807C92.059 7.64537 91.9075 7.23813 91.7561 6.80543L91.6803 6.60181H91.4784C91.3017 6.60181 91.125 6.62727 90.9483 6.65272C90.4182 6.70363 89.888 6.70363 89.3074 6.65272C89.1055 6.62727 88.8783 6.62727 88.6763 6.60181L88.2472 6.57636L93.5231 19.7354C93.8008 20.4481 94.0785 21.1608 94.3309 21.8734L94.7096 22.8916L94.9115 22.8661C95.6688 22.7897 96.2495 22.7897 96.8048 22.8661L97.0068 22.8916L102.434 10.4197L102.964 11.5396L107.205 22.2043C107.23 22.2552 107.256 22.3061 107.281 22.3571C107.331 22.4843 107.382 22.6116 107.483 22.7388L107.584 22.8661L107.735 22.8406C108.366 22.7388 108.972 22.7643 109.603 22.8406L109.805 22.8661L115.283 9.96157C115.712 8.91801 116.217 7.8999 116.672 6.9836L116.899 6.5L116.369 6.60181C115.738 6.72908 115.081 6.72907 114.475 6.62726Z" fill="#A18B7F"/>
<path d="M88.7532 21.0332C88.7027 20.9568 88.5765 20.9314 88.526 20.9314C87.6173 21.0332 86.7337 21.1096 85.8502 21.135C85.4463 21.135 85.0424 21.1604 84.6133 21.1859C83.4268 21.2368 82.1899 21.2623 80.9782 21.2368C80.9782 20.9823 80.9529 20.7532 80.9529 20.4987C80.9024 20.1678 80.9024 19.8369 80.9024 19.506V16.6299C80.9024 16.1717 80.9024 15.739 80.8772 15.2809C80.8772 14.8227 80.852 14.3646 80.852 13.9064C80.852 12.7865 80.9024 11.6666 80.9529 10.5721L81.1296 6.90693C81.1296 6.83058 81.1044 6.75422 81.0539 6.70332C81.0034 6.65241 80.9277 6.62695 80.852 6.62695H78.1509C78.0751 6.62695 77.9994 6.65241 77.9489 6.72877C77.8984 6.80512 77.8732 6.85603 77.8732 6.93239C77.9742 8.00141 78.0246 8.94315 78.0246 9.80854V19.6587L77.8227 22.5604C77.8227 22.6367 77.8479 22.7131 77.8984 22.764C77.9489 22.8149 78.0246 22.8403 78.1004 22.8403H78.5043C79.5898 22.8149 80.65 22.8149 81.7355 22.7894C83.3006 22.764 84.8909 22.7894 86.456 22.8149L88.5008 22.8658C88.5765 22.8658 88.6775 22.8149 88.728 22.764C88.7785 22.7131 88.8037 22.6113 88.7785 22.5095C88.6523 22.1022 88.6523 21.695 88.7785 21.2877C88.829 21.2114 88.8037 21.1096 88.7532 21.0332Z" fill="#A18B7F"/>
<path d="M74.4659 21.2623L74.5668 20.8805L74.1629 20.9314C73.3299 21.0332 72.4969 21.1096 71.6133 21.135C71.2094 21.135 70.7803 21.1604 70.3764 21.1859C69.1899 21.2368 67.953 21.2623 66.7665 21.2368C66.7413 20.6514 66.716 20.0914 66.716 19.506V16.6299C66.716 16.3244 66.716 16.0445 66.716 15.739C66.716 15.51 66.716 15.2809 66.7413 15.0773H69.2909L70.8812 15.1282C71.7648 15.1536 72.5726 15.2045 73.3804 15.2554L73.759 15.2809L73.6581 14.8991C73.6076 14.6955 73.5571 14.4664 73.5571 14.2882C73.5571 14.1101 73.6076 13.9064 73.6833 13.7028L73.8348 13.2956L73.4056 13.321C73.027 13.3465 72.6483 13.3465 72.2949 13.3719C71.8153 13.3974 71.3609 13.3974 70.8812 13.4483L69.3666 13.5246H66.7665C66.7665 13.3974 66.7665 13.2701 66.7665 13.1429C66.7665 12.9392 66.7413 12.7102 66.7413 12.5065V11.4884L66.8675 8.30683H68.685L71.5376 8.3832C72.0677 8.3832 72.5978 8.4341 73.1027 8.485C73.4309 8.51045 73.759 8.53591 74.0872 8.56137L74.4911 8.58681L74.3396 8.20503C74.2639 8.02686 74.2639 7.82323 74.2639 7.61961C74.2639 7.49234 74.2892 7.33963 74.3144 7.21236C74.3396 7.13601 74.3396 7.05965 74.3396 6.95784L74.3649 6.62695L73.961 6.65241C73.027 6.70332 72.0677 6.72877 71.1337 6.72877H67.0442L63.9645 6.62695L63.6615 6.65241L63.6868 6.95784C63.7373 7.92504 63.7878 8.9177 63.813 9.85945L63.8635 11.8702L63.7878 19.7097L63.5858 22.9167L64.2926 22.8912C65.3529 22.8658 66.4384 22.8658 67.5238 22.8403C69.1142 22.8149 70.6793 22.8403 72.2444 22.8658L74.5921 22.9167L74.4911 22.5604C74.3649 22.1022 74.3649 21.695 74.4659 21.2623Z" fill="#A18B7F"/>
<path d="M57.1984 14.5419C56.7693 14.3128 56.1129 14.1856 55.5071 14.0583C57.6528 13.2947 58.9655 11.8439 58.9655 10.0622C58.9655 9.06956 58.4354 8.12781 57.5771 7.51695C56.7693 6.93153 55.8353 6.75336 54.775 6.62609C53.9672 6.54974 53.1594 6.54974 52.3516 6.54974L48.8932 6.60065C48.2622 6.6261 47.6311 6.60064 46.8233 6.54974C46.7223 6.52429 46.6718 6.57519 46.6213 6.62609C46.5708 6.677 46.5456 6.75336 46.5456 6.82972L46.6718 9.0441L46.7223 11.793L46.6718 19.607C46.6718 20.3706 46.5961 21.1596 46.5203 21.8977L46.4698 22.5086C46.4698 22.585 46.4951 22.6613 46.5456 22.7122C46.5961 22.7631 46.6718 22.814 46.7475 22.814H51.0137C51.0642 22.814 51.1147 22.814 51.1399 22.814C53.0332 22.814 55.3556 22.7886 56.9965 21.8723C58.7635 20.8796 59.6976 19.4543 59.6976 17.7489C59.6976 17.1126 59.3946 16.3236 58.915 15.7636C58.4606 15.2291 57.8043 14.8728 57.1984 14.5419ZM55.2042 20.4978C54.3711 21.1596 53.4119 21.4396 51.9477 21.4396C51.4429 21.4396 50.938 21.4141 50.4584 21.3887C50.1554 21.3632 49.8525 21.3632 49.5496 21.3378L49.4991 14.9491H50.837C52.1244 14.9491 53.7148 14.9491 54.8003 15.5345C55.9867 16.1709 56.4411 16.8835 56.4411 18.1307C56.4664 18.9961 55.9867 19.887 55.2042 20.4978ZM53.9167 13.0911C52.6798 13.5492 51.3924 13.5492 50.0545 13.5492C49.8777 13.5492 49.701 13.5492 49.5243 13.5492L49.5496 9.55316C49.5496 9.04411 49.5496 8.53505 49.5748 8.02599C49.7515 8.02599 49.903 8.026 50.0797 8.00054C50.5088 7.97509 50.938 7.97509 51.3671 7.97509C52.3516 7.97509 53.5886 8.02599 54.4469 8.35688C55.4566 8.76412 55.911 9.75678 55.911 10.5713C55.911 11.6912 55.1789 12.6075 53.9167 13.0911Z" fill="#A18B7F"/>
<g opacity="0.9">
<path d="M47.0332 30.8082H50.3009V36.2168H49.6999V31.349H47.6341V36.2168H47.0332V30.8082ZM52.6293 31.349V33.3848H53.2152C54.0416 33.3848 54.5373 33.2571 54.5373 32.3331C54.5373 31.5669 54.1092 31.349 53.388 31.349H52.6293ZM52.6293 33.9256V36.2168H52.0283V30.8082H53.5307C54.5148 30.8082 55.1608 31.2664 55.1608 32.3331C55.1608 33.5951 54.3946 33.9256 53.4181 33.9256H52.6293ZM58.3675 36.3445C56.79 36.3445 56.5872 34.9999 56.5872 33.505C56.5872 32.2655 56.79 30.703 58.3675 30.703C59.9525 30.703 60.1554 32.2655 60.1554 33.505C60.1554 34.9999 59.945 36.3445 58.3675 36.3445ZM59.5319 33.4148C59.5319 32.2054 59.3065 31.2439 58.3525 31.2439C57.4285 31.2439 57.2107 32.1979 57.2107 33.4073C57.2107 34.9773 57.3759 35.8036 58.3675 35.8036C59.3591 35.8036 59.5319 34.9773 59.5319 33.4148ZM63.6481 30.8082H64.2491V31.3641H64.3993C65.3609 31.3641 66.3449 31.9725 66.3449 33.4524C66.3449 34.9247 65.421 35.5633 64.3918 35.5633H64.2491V36.2168H63.6481V35.5633H63.4979C62.4688 35.5633 61.5523 34.9323 61.5523 33.4524C61.5523 31.98 62.5288 31.3641 63.4904 31.3641H63.6481V30.8082ZM64.2491 31.9049V35.0224H64.4068C65.158 35.0224 65.7214 34.5116 65.7214 33.4374C65.7214 32.3857 65.143 31.9049 64.3993 31.9049H64.2491ZM63.6481 35.0224V31.9049H63.4979C62.7542 31.9049 62.1758 32.3857 62.1758 33.4374C62.1758 34.5116 62.7392 35.0224 63.4904 35.0224H63.6481ZM67.8868 30.8082H68.4878V35.2252C68.4878 35.4205 68.4803 35.6309 68.4727 35.8262H68.4878C68.5629 35.5783 68.5854 35.383 68.7056 35.0825L70.3883 30.8082H71.2597V36.2168H70.6587V31.9049C70.6587 31.627 70.6662 31.349 70.6738 31.0786H70.6587C70.6061 31.4016 70.5461 31.7096 70.4484 31.9575L68.7582 36.2168H67.8868V30.8082ZM73.3678 30.8082H76.3876V36.2168H75.7866V31.349H73.9687V33.49C73.9687 34.6994 73.9462 36.2844 72.8945 36.2844C72.7819 36.2844 72.6542 36.2694 72.534 36.2393V35.706C72.6166 35.736 72.6992 35.7435 72.7668 35.7435C73.3227 35.7435 73.3678 34.9022 73.3678 33.1669V30.8082ZM77.6612 36.2168L79.2011 30.8082H79.9974L81.5148 36.2168H80.8538L80.4256 34.6618H78.7204L78.3222 36.2168H77.6612ZM80.2904 34.121L79.5917 31.2439H79.5767L78.8631 34.121H80.2904ZM83.3926 30.8082V33.5876L85.3607 30.8082H86.1119L84.3841 33.0693L86.1645 36.2168H85.4659L84.0236 33.5425L83.3926 34.3313V36.2168H82.7916V30.8082H83.3926ZM88.9895 31.349V36.2168H88.3885V31.349H86.9838V30.8082H90.3867V31.349H88.9895ZM91.6595 30.8082H92.2605V35.2252C92.2605 35.4205 92.253 35.6309 92.2455 35.8262H92.2605C92.3356 35.5783 92.3582 35.383 92.4784 35.0825L94.161 30.8082H95.0324V36.2168H94.4315V31.9049C94.4315 31.627 94.439 31.349 94.4465 31.0786H94.4315C94.3789 31.4016 94.3188 31.7096 94.2211 31.9575L92.5309 36.2168H91.6595V30.8082ZM97.3584 30.8082V33.5876L99.3265 30.8082H100.078L98.3499 33.0693L100.13 36.2168H99.4317L97.9894 33.5425L97.3584 34.3313V36.2168H96.7574V30.8082H97.3584ZM100.957 36.2168L102.497 30.8082H103.293L104.811 36.2168H104.15L103.721 34.6618H102.016L101.618 36.2168H100.957ZM103.586 34.121L102.888 31.2439H102.873L102.159 34.121H103.586Z" fill="#A18B7F"/>
<path d="M114.992 30.8082V33.5876L116.96 30.8082H117.711L115.983 33.0693L117.764 36.2168H117.065L115.623 33.5425L114.992 34.3313V36.2168H114.391V30.8082H114.992ZM120.503 36.3445C118.925 36.3445 118.722 34.9999 118.722 33.505C118.722 32.2655 118.925 30.703 120.503 30.703C122.088 30.703 122.29 32.2655 122.29 33.505C122.29 34.9999 122.08 36.3445 120.503 36.3445ZM121.667 33.4148C121.667 32.2054 121.442 31.2439 120.488 31.2439C119.564 31.2439 119.346 32.1979 119.346 33.4073C119.346 34.9773 119.511 35.8036 120.503 35.8036C121.494 35.8036 121.667 34.9773 121.667 33.4148ZM124.469 31.349V33.3848H125.054C125.881 33.3848 126.377 33.2571 126.377 32.3331C126.377 31.5669 125.948 31.349 125.227 31.349H124.469ZM124.469 33.9256V36.2168H123.868V30.8082H125.37C126.354 30.8082 127 31.2664 127 32.3331C127 33.5951 126.234 33.9256 125.257 33.9256H124.469ZM129.178 31.349V33.3848H129.764C130.59 33.3848 131.086 33.2571 131.086 32.3331C131.086 31.5669 130.657 31.349 129.936 31.349H129.178ZM129.178 33.9256V36.2168H128.577V30.8082H130.079C131.063 30.8082 131.709 31.2664 131.709 32.3331C131.709 33.5951 130.943 33.9256 129.966 33.9256H129.178ZM133.286 30.8082H135.998V31.349H133.887V33.1068H135.862V33.6477H133.887V35.6759H136.005V36.2168H133.286V30.8082ZM138.126 30.8082V33.5876L140.094 30.8082H140.846L139.118 33.0693L140.898 36.2168H140.2L138.757 33.5425L138.126 34.3313V36.2168H137.525V30.8082H138.126ZM142.777 30.8082V35.6759H144.842V30.8082H145.443V35.6759H145.879V37.4788H145.308V36.2168H142.176V30.8082H142.777ZM147.193 30.8082H147.794V35.2252C147.794 35.4205 147.786 35.6309 147.779 35.8262H147.794C147.869 35.5783 147.891 35.383 148.012 35.0825L149.694 30.8082H150.566V36.2168H149.965V31.9049C149.965 31.627 149.972 31.349 149.98 31.0786H149.965C149.912 31.4016 149.852 31.7096 149.754 31.9575L148.064 36.2168H147.193V30.8082ZM154.559 33.3773V31.349H153.876C153.155 31.349 152.734 31.5669 152.734 32.3331C152.734 33.197 153.222 33.3773 154.049 33.3773H154.559ZM154.559 36.2168V33.9181H153.778L152.599 36.2168H151.93L153.147 33.843C152.531 33.6477 152.11 33.2571 152.11 32.3331C152.11 31.2589 152.749 30.8082 153.733 30.8082H155.16V36.2168H154.559Z" fill="#A18B7F"/>
<path d="M165.008 30.8082H165.647L166.909 34.5642L168.066 30.8082H168.697L167.209 35.3229C166.946 36.1267 166.638 36.3445 166.203 36.3445C165.962 36.3445 165.827 36.3145 165.744 36.2769V35.736C165.842 35.7886 166.007 35.8036 166.143 35.8036C166.353 35.8036 166.481 35.706 166.601 35.2928L165.008 30.8082ZM169.477 30.8082H170.146L171.28 32.919L172.414 30.8082H173.083L171.633 33.4374L173.113 36.2168H172.429L171.28 33.9557L170.108 36.2168H169.439L170.934 33.4374L169.477 30.8082ZM175.891 36.3445C174.314 36.3445 174.111 34.9999 174.111 33.505C174.111 32.2655 174.314 30.703 175.891 30.703C177.476 30.703 177.679 32.2655 177.679 33.505C177.679 34.9999 177.469 36.3445 175.891 36.3445ZM177.055 33.4148C177.055 32.2054 176.83 31.2439 175.876 31.2439C174.952 31.2439 174.734 32.1979 174.734 33.4073C174.734 34.9773 174.899 35.8036 175.891 35.8036C176.883 35.8036 177.055 34.9773 177.055 33.4148ZM179.782 30.8082H182.652V35.6759H183.08V37.4788H182.509V36.2168H179.421V37.4788H178.85V35.6759H179.211C179.722 34.7895 179.782 33.8055 179.782 32.1904V30.8082ZM182.051 31.349H180.383V32.7538C180.383 34.0308 180.21 34.9623 179.857 35.6759H182.051V31.349Z" fill="#A18B7F"/>
<circle cx="109.111" cy="33.2398" r="1.09724" fill="#A18B7F"/>
<circle cx="160.178" cy="33.2398" r="1.09724" fill="#A18B7F"/>
</g>
<path fill-rule="evenodd" clip-rule="evenodd" d="M37.1027 18.0775C36.1101 8.13108 27.3096 0.877619 17.4448 1.87845C7.58006 2.87929 0.386156 11.7527 1.37877 21.6991C2.37139 31.6455 11.1719 38.899 21.0367 37.8981C30.9014 36.8973 38.0953 28.0239 37.1027 18.0775ZM38.3716 17.9537C37.3074 7.29533 27.8826 -0.474021 17.3118 0.599037C6.74094 1.66178 -0.96462 11.1749 0.0996276 21.8332C1.16387 32.4916 10.5886 40.2609 21.1594 39.1879C31.7303 38.1148 39.4358 28.6121 38.3716 17.9537ZM21.8248 33.9261C21.7532 34.6897 21.2006 35.1333 20.4536 34.8857C18.5195 34.2357 17.6906 30.8308 19.2256 30.5109C20.6377 30.2117 21.9578 32.5745 21.8248 33.9261ZM16.6983 17.8043C16.1651 19.7397 15.6071 21.7652 14.3751 23.4845C13.8941 22.1535 13.7713 20.2447 13.7508 18.8414C13.7099 16.1278 13.7201 12.1761 15.3779 9.98869C15.8077 9.43152 16.4319 9.11167 16.9027 9.81329C17.8339 11.1959 17.2301 15.9008 16.7594 17.5826C16.739 17.6564 16.7187 17.7303 16.6983 17.8043ZM4.23401 21.4209C4.42844 23.4226 4.95033 25.5584 5.70758 26.6727C6.42391 27.787 7.49839 28.4577 8.81846 28.4474C10.3092 28.3025 11.4374 26.9896 12.3829 25.8892C12.5148 25.7357 12.6432 25.5863 12.7685 25.4449C12.2261 23.4226 11.8065 21.4106 11.6633 19.2954C11.4586 16.3961 12.0624 11.0927 14.5797 9.16326C15.0709 8.79182 15.8896 8.58546 16.4933 8.7815C19.5735 9.79265 18.9083 15.1992 18.0488 17.5414C17.2608 19.6978 16.0124 22.3392 14.5593 24.1448C15.0505 26.1258 15.8691 28.2101 16.5547 29.6442C16.964 30.5006 17.4041 31.326 17.8953 32.1308C17.8543 31.13 18.2841 29.9744 19.0209 29.2831C21.3336 27.4775 23.2881 30.934 22.6332 33.4515C22.5309 33.9571 22.3262 34.4008 22.1011 34.7516C29.5611 33.2245 34.8823 26.1981 34.1046 18.3978C33.2757 10.0815 25.9181 4.01464 17.6701 4.85039C9.42222 5.68614 3.40512 13.1047 4.23401 21.4209ZM34.6674 18.3358C35.4656 26.3528 30.3592 33.565 22.7662 35.2365C21.3848 35.5357 20.034 35.7524 18.7548 34.9889C17.4962 34.2357 16.3603 32.9253 15.5519 31.7181C14.4774 30.1189 13.4541 27.8902 12.9117 26.033C11.8065 27.4259 10.4353 28.8188 8.83893 28.922C7.35512 28.9736 6.02481 28.1997 5.27779 26.9306C4.57171 25.9504 3.88608 23.5051 3.68142 21.4725C2.82184 12.8467 9.06406 5.14961 17.619 4.28291C26.1739 3.41621 33.8078 9.71011 34.6674 18.3358Z" fill="#A18B7F"/>
</svg>
