<svg width="32" height="33" viewBox="0 0 32 33" fill="none" xmlns="http://www.w3.org/2000/svg">
<g clip-path="url(#clip0_1791_1221)">
<path d="M0.776719 7.07086C0.501062 9.12116 0.5 11.7968 0.5 15.4313V16.7113C0.5 20.3458 0.501062 23.0214 0.776719 25.0717C1.05044 27.1076 1.58665 28.452 2.60297 29.4683C3.6193 30.4847 4.96364 31.0209 6.99957 31.2946C9.04987 31.5702 11.7255 31.5713 15.36 31.5713H16.64C20.2745 31.5713 22.9501 31.5702 25.0004 31.2946C27.0363 31.0209 28.3807 30.4847 29.397 29.4683C29.397 29.4683 29.397 29.4683 29.3971 29.4683M0.776719 7.07086L29.7506 2.32071C32 4.57013 32 8.19049 32 15.4313V16.7113C32 23.9521 32 27.5724 29.7506 29.8219L29.3971 29.4683M0.776719 7.07086C1.05044 5.03493 1.58665 3.69059 2.60297 2.67426C3.6193 1.65794 4.96364 1.12173 6.99957 0.848008C9.04987 0.572351 11.7255 0.571289 15.36 0.571289H16.64C20.2745 0.571289 22.9501 0.572351 25.0004 0.848008C27.0363 1.12173 28.3807 1.65794 29.3971 2.67427C30.4134 3.69059 30.9496 5.03493 31.2233 7.07086C31.4989 9.12116 31.5 11.7968 31.5 15.4313V16.7113C31.5 20.3458 31.4989 23.0214 31.2233 25.0717C30.9496 27.1076 30.4134 28.452 29.3971 29.4683M0.776719 7.07086L29.3971 29.4683" stroke="#A18B7F"/>
<path d="M17.0264 23.1257C9.73308 23.1257 5.57314 18.1257 5.39981 9.80566H9.05314C9.17314 15.9123 11.8664 18.499 13.9997 19.0323V9.80566H17.4399V15.0723C19.5465 14.8457 21.7596 12.4457 22.5063 9.80566H25.9463C25.373 13.059 22.973 15.459 21.2663 16.4457C22.973 17.2457 25.7065 19.339 26.7465 23.1257H22.9597C22.1463 20.5923 20.1199 18.6323 17.4399 18.3657V23.1257H17.0264Z" fill="#A18B7F"/>
</g>
<defs>
<clipPath id="clip0_1791_1221">
<rect width="32" height="32" fill="white" transform="translate(0 0.0712891)"/>
</clipPath>
</defs>
</svg>
